<?xml version="1.0" standalone="no"?>
<!DOCTYPE svg PUBLIC "-//W3C//DTD SVG 20010904//EN"
 "http://www.w3.org/TR/2001/REC-SVG-20010904/DTD/svg10.dtd">
<svg version="1.0" xmlns="http://www.w3.org/2000/svg"
 width="351.000000pt" height="351.000000pt" viewBox="0 0 351.000000 351.000000"
 preserveAspectRatio="xMidYMid meet">
<metadata>
Created by potrace 1.11, written by Peter Selinger 2001-2013
</metadata>
<g transform="translate(0.000000,351.000000) scale(0.100000,-0.100000)"
fill="#000000" stroke="none">
<path d="M3300 3470 c0 -5 5 -10 10 -10 6 0 10 5 10 10 0 6 -4 10 -10 10 -5 0
-10 -4 -10 -10z"/>
<path d="M2935 3270 c-3 -5 -1 -10 4 -10 6 0 11 5 11 10 0 6 -2 10 -4 10 -3 0
-8 -4 -11 -10z"/>
<path d="M1966 3244 c-8 -21 -8 -24 4 -24 5 0 14 9 20 20 8 16 8 20 -4 20 -7
0 -17 -7 -20 -16z"/>
<path d="M2545 3230 c-3 -5 -2 -10 4 -10 5 0 13 5 16 10 3 6 2 10 -4 10 -5 0
-13 -4 -16 -10z"/>
<path d="M3290 3230 c0 -5 5 -10 10 -10 6 0 10 5 10 10 0 6 -4 10 -10 10 -5 0
-10 -4 -10 -10z"/>
<path d="M1723 3173 c-7 -3 -13 -12 -13 -21 0 -15 2 -15 17 1 18 18 16 27 -4
20z"/>
<path d="M2424 3129 c-8 -14 11 -33 25 -25 6 4 11 11 11 16 0 13 -29 20 -36 9z"/>
<path d="M650 3121 c0 -5 5 -13 10 -16 6 -3 10 -2 10 4 0 5 -4 13 -10 16 -5 3
-10 2 -10 -4z"/>
<path d="M1465 3100 c-3 -5 -12 -7 -20 -3 -10 3 -15 -2 -17 -18 0 -13 -2 -28
-3 -34 -2 -5 -3 -16 -4 -23 0 -8 -13 0 -27 17 -31 38 -83 42 -114 11 -11 -11
-24 -20 -28 -20 -5 0 -10 -6 -11 -12 -3 -17 -10 -170 -11 -229 l0 -46 -48 -6
c-27 -3 -66 -16 -87 -28 l-38 -23 6 25 c4 13 10 58 13 100 8 88 -7 128 -59
159 -73 45 -128 12 -148 -90 -11 -59 -13 -61 -38 -55 -14 4 -44 15 -68 26 -59
27 -208 27 -278 0 -106 -41 -207 -110 -269 -182 -46 -54 -156 -268 -156 -304
0 -14 7 -40 16 -57 13 -24 15 -52 11 -130 -4 -87 -2 -102 14 -117 25 -23 49
-83 49 -122 0 -22 10 -42 31 -64 l31 -31 2 -295 c1 -162 5 -300 10 -308 5 -8
5 -12 0 -9 -14 9 -16 -320 -3 -460 8 -95 8 -126 -1 -137 -16 -19 -9 -140 9
-157 21 -21 51 25 51 78 0 25 6 55 14 67 18 29 29 95 19 110 -5 7 -5 79 1 162
5 83 9 239 10 347 1 228 11 255 46 126 14 -50 19 -90 14 -107 -12 -46 -4 -312
12 -378 11 -43 12 -67 5 -81 -7 -14 -4 -25 14 -48 22 -28 25 -28 41 -12 16 16
18 39 16 240 -1 123 -5 246 -8 273 l-6 50 40 0 40 0 6 -73 c4 -40 7 -125 7
-190 0 -233 16 -284 73 -247 21 14 25 22 19 39 -11 29 -4 454 8 492 11 36 73
99 88 90 16 -10 14 -33 -5 -61 -15 -23 -15 -25 0 -31 11 -4 16 -18 16 -44 0
-43 24 -70 62 -70 41 0 62 32 54 83 -6 36 -3 46 13 61 20 18 20 17 27 -10 5
-16 7 -85 6 -154 -3 -140 -3 -190 -2 -222 1 -13 0 -41 -2 -63 -2 -32 4 -52 29
-90 60 -93 62 -95 98 -95 29 0 34 -4 40 -30 4 -16 16 -37 27 -45 18 -12 21
-23 19 -72 -1 -32 -7 -61 -14 -65 -8 -5 -8 -8 -1 -8 6 0 14 -18 17 -40 7 -54
23 -72 61 -68 24 2 35 11 46 35 8 17 26 37 39 43 22 10 23 15 18 59 -5 44 -4
49 19 59 13 7 24 16 24 22 0 15 -11 12 -32 -7 -21 -18 -21 -14 -7 42 5 22 10
67 9 100 0 52 3 64 24 84 23 22 25 22 50 5 25 -16 27 -22 25 -83 -3 -89 22
-136 72 -136 30 0 36 5 54 40 12 25 19 60 19 92 l0 51 45 7 c26 3 70 17 100
31 29 13 57 24 60 24 4 0 15 -18 25 -40 10 -22 22 -40 27 -40 6 0 9 -6 8 -12
-2 -7 3 -38 9 -67 7 -30 10 -74 6 -97 -3 -25 -1 -50 6 -63 10 -19 18 -22 62
-19 61 4 79 23 59 62 -9 17 -12 39 -7 68 4 24 9 97 12 163 2 66 9 124 14 129
12 12 10 15 49 -64 18 -36 47 -80 64 -98 24 -25 32 -42 33 -75 0 -23 4 -49 8
-58 4 -8 3 -26 -2 -40 -6 -15 -6 -48 1 -88 9 -57 14 -66 50 -92 57 -42 99 -28
101 33 1 18 9 40 18 48 26 23 41 156 23 194 -28 55 -10 140 31 150 40 11 92
57 108 98 26 62 34 54 38 -37 3 -85 3 -86 -25 -98 -15 -6 -25 -18 -22 -24 2
-7 0 -13 -5 -13 -6 0 -5 -9 2 -20 7 -11 23 -20 35 -20 20 0 23 -5 23 -40 0
-137 37 -579 56 -672 5 -26 10 -28 50 -28 l45 0 -6 253 c-3 138 -7 299 -10
357 l-5 105 28 19 c31 20 62 76 62 109 0 12 -6 31 -14 42 -7 11 -16 56 -20
100 -3 44 -12 108 -19 142 -10 44 -10 64 -3 68 7 3 7 7 -1 11 -20 9 -15 31 7
37 11 3 25 19 31 36 6 17 15 31 19 31 13 0 23 -54 11 -58 -16 -5 -13 -23 5
-36 12 -9 16 -39 20 -136 5 -137 12 -153 63 -153 31 0 75 29 66 44 -3 4 -7 43
-9 86 -3 43 -2 68 0 56 8 -33 21 -28 21 7 0 18 -6 30 -14 30 -7 0 -13 4 -13 9
0 14 34 23 56 14 17 -6 17 -5 5 10 -9 11 -10 17 -2 17 14 0 13 7 16 -120 3
-88 42 -386 61 -455 5 -20 5 -20 -10 -1 -26 32 -28 12 -2 -23 13 -17 29 -53
36 -79 6 -26 19 -64 27 -84 9 -21 16 -57 17 -80 1 -36 6 -45 35 -65 53 -36
114 -27 93 14 -6 11 -14 44 -18 74 -4 30 -24 99 -45 153 -24 61 -39 117 -39
143 0 24 -3 43 -7 43 -5 0 -9 57 -9 127 -2 111 0 125 12 108 8 -10 14 -25 14
-32 0 -13 12 -17 22 -7 3 3 -3 29 -14 57 -10 29 -21 60 -23 70 -2 9 -7 22 -10
28 -4 5 2 18 12 27 10 9 17 25 15 34 -2 13 1 16 12 12 9 -3 16 -1 16 5 0 9
-13 13 -36 10 -12 -1 -24 25 -24 53 0 18 6 29 20 33 26 8 42 -3 35 -25 -3 -11
0 -20 10 -23 8 -4 12 -13 9 -22 -4 -10 0 -15 10 -15 22 0 20 15 -5 38 -16 16
-17 21 -6 25 8 3 19 1 25 -5 6 -6 12 -6 17 3 6 8 4 10 -5 4 -10 -6 -12 -3 -8
13 4 12 2 25 -3 28 -16 9 -10 39 11 52 18 11 20 10 17 -8 -2 -11 -6 -23 -10
-26 -10 -11 -8 -24 3 -24 6 0 16 11 22 25 10 22 16 25 40 20 17 -4 28 -2 28 4
0 6 7 8 15 5 9 -4 18 1 21 10 11 28 -5 31 -38 6 -26 -19 -30 -20 -24 -5 3 10
1 24 -6 32 -10 12 -8 12 15 2 30 -14 47 -5 29 13 -15 15 -16 32 -1 23 6 -4 17
1 24 11 9 11 14 14 15 7 0 -7 10 -13 23 -13 20 1 21 2 5 14 -10 7 -18 16 -18
20 0 3 8 6 18 6 14 0 15 2 2 10 -8 5 -11 10 -6 10 5 0 3 6 -3 14 -9 11 -6 12
14 8 14 -2 28 -8 31 -13 7 -13 44 -11 44 1 0 6 -8 10 -17 8 -11 -2 -19 5 -21
17 -3 17 -1 18 8 5 9 -12 11 -10 7 13 -2 15 0 27 4 27 5 0 9 -9 9 -20 0 -21
16 -28 22 -9 2 5 11 7 21 4 9 -4 14 -11 11 -16 -3 -5 0 -9 5 -9 14 0 14 13 -1
28 -15 15 -20 44 -6 35 7 -4 9 2 6 15 -4 12 -2 22 3 22 14 0 12 753 -2 767 -8
8 -8 13 0 17 16 11 13 46 -4 46 -8 0 -15 9 -15 21 0 11 -4 18 -9 15 -7 -5 -19
20 -19 41 0 3 -6 10 -14 14 -11 7 -10 11 2 19 13 9 13 11 0 20 -8 5 -10 10 -5
10 6 0 3 5 -5 10 -11 7 -19 5 -28 -7 -9 -13 -15 -14 -24 -5 -9 9 -9 12 -1 12
7 0 11 9 10 19 0 11 -5 17 -9 15 -8 -5 -12 17 -9 44 3 21 -29 26 -43 7 -7 -10
-25 -19 -40 -21 -23 -2 -26 0 -20 18 5 17 3 20 -10 15 -13 -5 -16 -3 -12 11 5
15 1 19 -25 19 -19 0 -35 6 -41 16 -5 10 -14 17 -21 17 -7 0 -6 -4 3 -10 9 -6
10 -10 3 -10 -6 0 -15 5 -18 11 -4 6 -14 8 -22 5 -11 -4 -13 -2 -9 9 8 21 -11
19 -23 -2 -6 -10 -11 -12 -11 -5 0 6 -5 12 -11 12 -6 0 -17 7 -25 15 -24 24
-44 18 -45 -12 l-1 -28 -7 25 c-6 25 -22 32 -37 18 -4 -5 -2 -8 4 -8 7 0 12
-9 12 -20 0 -24 -26 -26 -56 -5 -12 8 -24 12 -28 10 -3 -3 -2 1 4 7 13 15 13
31 0 23 -5 -3 -10 0 -10 7 -1 7 -13 -2 -29 -19 -15 -18 -31 -33 -35 -33 -5 0
-3 7 4 15 7 9 10 18 7 21 -8 9 -27 -5 -27 -20 0 -15 -47 -42 -56 -33 -4 4 -1
14 6 22 19 23 -2 65 -34 65 -43 0 -54 -28 -31 -84 7 -16 6 -17 -13 -7 -27 14
-35 14 -26 -1 4 -7 -2 -4 -14 6 -22 19 -22 19 -23 -5 -1 -16 -4 -11 -10 16 -5
21 -7 46 -4 55 8 19 6 26 -6 23 -18 -5 -9 32 11 45 38 23 20 82 -26 82 -18 0
-23 7 -29 38 -3 22 -20 55 -36 75 -24 30 -37 37 -65 37 -44 0 -81 -37 -96 -96
-8 -27 -17 -42 -27 -42 -15 -1 -82 -16 -123 -28 -10 -3 -19 2 -23 16 -9 28
-73 70 -108 70 -16 0 -38 -10 -52 -24 l-24 -24 -11 34 c-30 91 -101 121 -152
67 -43 -47 -50 -70 -47 -162 4 -145 3 -149 -26 -143 -24 4 -36 32 -14 32 8 0
8 4 2 13 -6 6 -16 28 -22 48 -6 20 -25 50 -42 67 -31 31 -137 92 -162 92 -12
0 -13 8 -5 45 7 34 7 50 -2 60 -14 17 -36 20 -45 5z m-79 -133 c3 -11 19 -79
34 -151 l27 -131 8 95 c9 117 25 160 58 160 13 0 34 -11 47 -25 27 -29 28 -59
5 -202 -8 -51 -15 -95 -15 -98 0 -2 37 14 82 35 45 22 94 40 108 40 17 0 47
-18 85 -50 33 -28 61 -47 62 -43 1 4 -6 49 -16 98 -17 82 -19 86 -20 43 0 -27
-5 -48 -11 -48 -6 0 -10 55 -10 144 0 140 1 144 26 171 l25 27 25 -23 c27 -26
35 -50 65 -204 12 -60 25 -114 29 -118 4 -5 11 36 15 90 9 119 24 163 58 163
13 0 34 -11 47 -25 27 -29 28 -59 5 -202 -8 -51 -15 -95 -15 -98 0 -2 37 14
82 35 45 22 94 40 108 40 17 0 47 -18 85 -50 33 -28 61 -47 62 -43 1 4 -6 49
-16 98 -17 82 -19 86 -20 43 0 -27 -5 -48 -11 -48 -6 0 -10 55 -10 144 0 140
1 144 26 171 l25 27 25 -23 c29 -27 34 -46 74 -249 17 -85 33 -165 36 -178 4
-21 6 -21 28 -7 22 15 25 14 50 -15 28 -34 29 -39 20 -117 -8 -60 -20 -69 -29
-20 -5 23 -16 36 -39 47 -31 15 -32 14 -55 -12 -12 -16 -31 -28 -40 -28 -25 0
-105 44 -168 91 l-53 39 -52 -26 c-89 -45 -88 -42 -103 -306 -4 -78 -3 -98 8
-98 19 0 58 -44 102 -115 53 -84 195 -214 284 -260 l34 -17 -7 218 c-7 234 -2
278 36 290 13 4 26 0 37 -10 13 -14 17 -45 19 -177 4 -159 4 -160 23 -143 18
16 24 17 67 4 26 -7 83 -16 127 -20 113 -8 129 -24 79 -71 -23 -22 -35 -24
-136 -27 l-110 -4 5 -35 c5 -28 3 -34 -8 -29 -11 4 -15 -2 -15 -19 0 -14 -3
-25 -7 -25 -5 0 -6 -29 -5 -65 2 -40 -2 -82 -11 -109 -11 -32 -13 -56 -6 -92
6 -34 6 -50 -2 -55 -11 -6 -10 -25 2 -68 2 -7 -2 -16 -8 -18 -10 -4 -13 16
-13 76 0 48 -4 83 -11 87 -8 5 -9 -13 -4 -65 5 -49 4 -71 -4 -71 -16 0 -14
-92 3 -165 17 -73 36 -234 36 -310 0 -49 -3 -57 -25 -67 -19 -9 -29 -8 -49 6
-28 18 -32 36 -40 166 -6 92 -25 200 -35 200 -4 0 -34 -37 -68 -82 -34 -46
-84 -109 -111 -140 -64 -72 -82 -139 -57 -210 8 -25 13 -61 11 -79 -6 -47 -7
-47 -16 -19 -8 25 -8 25 -9 2 -1 -13 4 -32 9 -43 12 -21 1 -26 -18 -7 -9 9
-12 -2 -12 -50 0 -39 -4 -62 -11 -62 -8 0 -9 20 -4 68 10 92 8 199 -5 220 -8
12 -10 -6 -6 -70 2 -49 1 -88 -4 -88 -5 0 -11 8 -13 17 -3 10 -5 -1 -6 -24 0
-23 3 -53 9 -67 5 -15 5 -28 0 -31 -22 -14 -34 92 -16 144 19 53 20 62 4 59
-7 -2 -12 3 -10 11 6 28 -21 110 -38 114 -9 2 -36 42 -60 88 -51 98 -120 209
-142 227 -14 11 -16 4 -15 -65 3 -140 -6 -353 -14 -353 -4 0 -10 17 -12 38 -2
20 -2 -12 1 -72 4 -90 2 -108 -9 -104 -9 3 -12 14 -10 29 5 27 5 42 0 112 -2
26 -6 47 -9 47 -4 0 -5 13 -2 29 3 22 -1 29 -16 33 -29 8 -44 72 -37 155 l6
68 -19 -41 c-38 -79 -105 -120 -247 -151 l-40 -9 -3 -62 c-2 -36 -7 -60 -12
-57 -6 4 -10 -8 -10 -24 0 -17 -4 -31 -10 -31 -5 0 -10 9 -10 20 0 11 -4 20
-10 20 -5 0 -7 21 -3 49 8 68 -1 96 -40 120 -19 11 -38 30 -43 41 -8 19 -12
17 -59 -30 -49 -50 -50 -52 -50 -113 -1 -34 -3 -66 -7 -72 -13 -23 -19 -135
-8 -156 9 -15 9 -24 1 -32 -21 -21 -25 5 -22 153 2 104 -1 150 -9 150 -7 0
-10 -23 -9 -62 2 -108 -13 -308 -24 -308 -6 0 -8 40 -5 111 4 65 2 106 -3 98
-6 -9 -9 6 -9 42 0 35 -6 62 -16 75 -14 18 -15 16 -11 -28 3 -27 1 -48 -4 -48
-5 0 -9 23 -9 51 0 36 -7 63 -25 92 -31 54 -59 210 -50 281 4 28 14 66 22 83
17 37 86 103 107 103 16 0 22 136 6 160 -8 12 -10 11 -10 -7 0 -13 -4 -23 -9
-23 -5 0 -5 18 1 42 12 57 2 107 -33 162 -28 46 -29 46 -71 40 -24 -4 -81 -16
-128 -28 l-85 -22 -3 -127 c-2 -81 -6 -127 -13 -127 -7 0 -10 -21 -7 -55 2
-39 -1 -55 -9 -55 -7 0 -13 12 -14 28 0 15 -1 91 -2 170 -1 122 -3 142 -17
142 -20 0 -40 19 -40 39 0 8 34 83 75 166 41 82 83 183 94 224 21 77 31 91 67
91 27 0 31 20 40 203 5 97 4 137 -4 137 -7 0 -12 -27 -14 -67 -2 -39 -7 -67
-13 -65 -6 2 -9 27 -7 58 2 38 0 54 -7 49 -7 -4 -11 -45 -11 -101 0 -70 -3
-95 -12 -92 -9 3 -11 31 -9 96 2 80 0 94 -19 120 -12 17 -25 51 -28 78 -7 64
17 331 34 372 16 40 50 43 84 7 27 -29 28 -59 5 -202 -8 -51 -15 -95 -15 -98
0 -2 37 14 82 35 45 22 94 40 108 40 17 0 47 -18 85 -50 33 -28 61 -47 62 -43
1 4 -6 49 -16 98 -17 82 -19 86 -20 43 0 -27 -5 -48 -11 -48 -6 0 -10 55 -10
144 0 140 1 144 26 171 l25 27 24 -22 c14 -13 27 -32 31 -43z m1489 -247 c3
-5 2 -10 -4 -10 -5 0 -13 5 -16 10 -3 6 -2 10 4 10 5 0 13 -4 16 -10z m483
-82 c-4 -16 -20 -28 -30 -22 -4 3 -5 11 -1 19 6 18 34 20 31 3z m-3033 -328
c3 -5 1 -10 -4 -10 -6 0 -11 5 -11 10 0 6 2 10 4 10 3 0 8 -4 11 -10z m475
-112 c0 -6 -6 -5 -15 2 -8 7 -15 14 -15 16 0 2 7 1 15 -2 8 -4 15 -11 15 -16z
m-126 -62 c57 -28 119 -97 114 -126 -5 -25 -43 -23 -76 5 -45 38 -95 55 -160
55 -110 0 -152 -33 -152 -119 0 -72 -1 -71 129 -71 137 -1 200 -11 218 -36 11
-16 10 -21 -6 -38 -17 -16 -42 -21 -148 -28 -70 -5 -129 -11 -131 -12 -1 -2
10 -30 25 -62 24 -50 28 -70 25 -129 -1 -38 -3 -105 -4 -147 -1 -43 -5 -78 -8
-78 -14 0 -28 94 -18 119 13 35 1 131 -16 125 -16 -6 -35 17 -78 94 -19 34
-38 59 -41 55 -4 -3 -7 -33 -7 -65 0 -34 -4 -58 -11 -58 -6 0 -9 -23 -8 -62 2
-44 -1 -63 -11 -66 -9 -3 -11 2 -6 23 4 14 -1 90 -10 167 -15 125 -15 141 -1
155 12 12 14 32 9 98 -7 128 28 187 133 222 64 21 173 11 239 -21z m2572 13
c26 -29 31 -159 11 -303 -9 -61 -19 -135 -22 -165 -10 -90 -33 -112 -71 -70
-16 18 -19 36 -18 133 0 61 5 146 10 188 l10 77 -45 -39 c-92 -77 -106 -96
-103 -146 1 -27 -2 -43 -8 -39 -6 4 -10 -9 -10 -29 0 -20 -4 -36 -10 -36 -6 0
-10 33 -10 79 0 56 -5 88 -17 108 -25 44 -11 72 64 134 168 138 185 146 219
108z m-2989 -101 c-3 -8 -6 -5 -6 6 -1 11 2 17 5 13 3 -3 4 -12 1 -19z m-7
-163 c0 -8 -4 -15 -10 -15 -5 0 -7 7 -4 15 4 8 8 15 10 15 2 0 4 -7 4 -15z
m300 -170 c0 -8 -2 -15 -4 -15 -2 0 -6 7 -10 15 -3 8 -1 15 4 15 6 0 10 -7 10
-15z m70 -16 c0 -5 -5 -7 -11 -3 -6 3 -15 0 -20 -7 -7 -11 -9 -10 -9 4 0 10 8
17 20 17 11 0 20 -5 20 -11z m50 -54 c0 -2 -4 -15 -10 -29 -14 -39 -30 -31
-30 14 0 38 2 40 20 30 11 -6 20 -13 20 -15z m-60 -5 c0 -5 -2 -10 -4 -10 -3
0 -8 5 -11 10 -3 6 -1 10 4 10 6 0 11 -4 11 -10z m-207 -90 c-3 -11 0 -20 6
-20 6 0 11 -11 11 -25 0 -18 -4 -23 -15 -19 -10 4 -15 0 -15 -15 0 -12 5 -20
12 -18 14 2 19 -35 8 -53 -14 -23 -30 1 -30 44 0 27 6 48 15 56 11 9 13 16 5
24 -12 12 -14 59 -1 52 5 -3 7 -15 4 -26z m255 -1 c-3 -8 -7 -3 -11 10 -4 17
-3 21 5 13 5 -5 8 -16 6 -23z m-1 -51 c-3 -8 -6 -5 -6 6 -1 11 2 17 5 13 3 -3
4 -12 1 -19z m2666 7 c-3 -9 -8 -14 -10 -11 -3 3 -2 9 2 15 9 16 15 13 8 -4z
m-2274 -22 c-9 -23 -7 -30 9 -43 14 -12 16 -19 8 -32 -8 -14 -5 -23 18 -47
l29 -30 -36 -40 c-20 -22 -44 -55 -53 -73 -17 -32 -17 -32 -26 -9 -9 26 -2 61
13 61 12 0 12 43 0 56 -11 11 -23 168 -14 178 3 3 19 6 34 6 27 0 28 -2 18
-27z m-89 -17 c0 -2 -8 -10 -17 -17 -16 -13 -17 -12 -4 4 13 16 21 21 21 13z
m-255 -25 c3 -5 1 -12 -5 -16 -5 -3 -10 1 -10 9 0 18 6 21 15 7z m-35 -39 c-6
-2 -10 -10 -10 -18 0 -16 -2 -16 -24 -8 -9 3 -16 10 -16 15 0 4 7 6 16 2 10
-4 17 2 21 17 4 16 8 18 14 8 5 -7 4 -14 -1 -16z m-399 -5 c-10 -9 -11 -8 -5
6 3 10 9 15 12 12 3 -3 0 -11 -7 -18z m329 -32 c0 -8 -2 -15 -4 -15 -2 0 -6 7
-10 15 -3 8 -1 15 4 15 6 0 10 -7 10 -15z m366 -11 c-4 -9 -9 -15 -11 -12 -3
3 -3 13 1 22 4 9 9 15 11 12 3 -3 3 -13 -1 -22z m-681 -3 c-3 -11 -1 -22 5
-26 7 -4 7 -12 0 -25 -5 -10 -7 -39 -4 -64 6 -40 5 -46 -10 -40 -17 7 -22 34
-6 34 6 0 10 5 10 11 0 5 -4 7 -10 4 -6 -4 -7 1 -3 11 5 13 3 15 -7 9 -9 -5
-7 0 3 16 18 25 23 44 9 35 -4 -2 -9 5 -9 17 -1 12 3 25 10 29 18 11 19 10 12
-11z m130 -7 c7 2 16 -2 19 -10 3 -9 -1 -14 -13 -14 -18 0 -32 20 -30 43 1 7
3 4 6 -6 3 -10 11 -16 18 -13z m206 -15 c-5 -13 -10 -19 -10 -12 -1 15 10 45
15 40 3 -2 0 -15 -5 -28z m-1 -39 c0 -5 -10 -19 -22 -31 -18 -17 -19 -21 -5
-16 12 5 17 1 17 -13 0 -11 -3 -20 -7 -20 -5 0 -8 -18 -7 -40 1 -50 -12 -72
-18 -31 -2 17 -1 31 3 31 7 0 6 41 -2 65 -2 6 5 22 16 37 22 30 25 32 25 18z
m-190 -55 c-6 -8 -5 -16 3 -24 10 -10 8 -12 -8 -9 -21 3 -31 29 -21 55 5 12 9
13 21 3 10 -9 12 -16 5 -25z m535 26 c3 -5 1 -12 -5 -16 -5 -3 -10 1 -10 9 0
18 6 21 15 7z m1935 -21 c0 -5 -4 -10 -10 -10 -5 0 -10 5 -10 10 0 6 5 10 10
10 6 0 10 -4 10 -10z m5 -40 c3 -5 1 -10 -4 -10 -6 0 -11 5 -11 10 0 6 2 10 4
10 3 0 8 -4 11 -10z m-2452 -20 c-3 -12 -8 -19 -11 -16 -5 6 5 36 12 36 2 0 2
-9 -1 -20z m-23 1 c0 -16 -12 -41 -20 -41 -4 0 -5 11 -2 25 4 23 22 36 22 16z
m-153 -15 c-3 -7 0 -19 6 -26 9 -10 9 -11 -2 -5 -11 6 -13 4 -8 -8 3 -10 2
-17 -4 -17 -5 0 -9 16 -7 35 1 19 6 35 11 35 5 0 7 -6 4 -14z m703 -16 c0 -5
-5 -10 -11 -10 -5 0 -7 5 -4 10 3 6 8 10 11 10 2 0 4 -4 4 -10z m-528 -62 c-3
-13 -7 -16 -12 -8 -4 7 -5 21 -2 32 3 13 7 16 12 8 4 -7 5 -21 2 -32z m-162 3
c0 -5 -6 -11 -12 -14 -10 -3 -9 -8 2 -23 14 -17 14 -18 -2 -6 -19 15 -20 52
-1 52 7 0 13 -4 13 -9z m308 -26 c-3 -14 -1 -25 3 -25 5 0 9 -7 9 -15 0 -19
-14 -19 -29 -1 -8 10 -9 16 -1 21 6 3 8 11 5 16 -4 5 -3 14 0 19 11 18 17 10
13 -15z m-148 -42 c0 -18 -3 -33 -6 -33 -17 0 -44 23 -43 38 0 10 3 12 6 5 8
-20 25 -15 19 5 -4 13 -1 19 9 19 10 0 15 -11 15 -34z m522 22 c0 -5 -5 -11
-11 -13 -6 -2 -11 4 -11 13 0 9 5 15 11 13 6 -2 11 -8 11 -13z m-700 -69 c-2
-20 -9 -39 -15 -43 -6 -4 -8 2 -4 18 4 13 7 34 7 47 0 13 4 21 8 18 4 -3 6
-21 4 -40z m335 7 c2 -6 -3 -13 -11 -16 -8 -3 -16 2 -19 13 -3 12 0 17 11 16
9 -2 17 -7 19 -13z m445 -66 c11 -21 0 -147 -13 -147 -4 0 -11 16 -15 35 -3
20 -12 35 -20 35 -21 0 -54 37 -54 60 0 12 12 32 26 46 25 25 26 26 46 8 11
-10 24 -27 30 -37z m-447 8 c0 -17 -5 -25 -17 -25 -21 0 -22 4 -8 31 15 26 25
24 25 -6z m-349 -31 c3 -71 4 -76 18 -71 10 4 15 -12 19 -68 4 -61 2 -81 -14
-112 -10 -20 -19 -44 -19 -52 0 -11 -5 -9 -15 7 -14 19 -14 25 -2 49 10 20 12
45 8 86 -7 53 2 79 12 40 3 -11 5 -7 6 10 0 15 -2 27 -6 27 -13 0 -33 52 -33
83 0 32 24 33 26 1z m30 -41 c-10 -26 -18 -8 -9 23 5 21 8 24 11 11 2 -10 1
-25 -2 -34z m314 -43 c0 -5 -5 -10 -11 -10 -5 0 -7 5 -4 10 3 6 8 10 11 10 2
0 4 -4 4 -10z m-146 -15 c-4 -8 -13 -15 -21 -15 -13 0 -13 3 -3 15 7 8 16 15
21 15 5 0 6 -7 3 -15z"/>
<path d="M1125 2533 c-82 -41 -85 -48 -96 -257 l-10 -184 24 -39 c14 -21 35
-71 47 -111 38 -129 54 -159 90 -164 23 -4 33 -1 36 11 3 9 21 49 41 90 40 82
146 197 221 241 84 49 80 40 88 198 5 100 4 142 -4 142 -7 0 -12 -27 -14 -67
-2 -41 -7 -66 -13 -63 -5 3 -9 29 -7 58 2 36 0 52 -7 47 -7 -4 -11 -45 -11
-101 0 -70 -3 -95 -12 -92 -8 3 -11 32 -9 99 2 83 0 97 -17 112 -18 16 -20 16
-37 -3 -10 -11 -26 -20 -35 -20 -24 0 -105 44 -167 91 -29 21 -53 39 -55 38
-2 0 -25 -12 -53 -26z"/>
<path d="M1676 2533 c-86 -44 -88 -51 -99 -284 l-4 -77 36 5 c75 10 124 -75
103 -180 -6 -28 -8 -64 -5 -79 3 -17 1 -28 -6 -28 -6 0 -11 7 -11 17 0 9 -2
14 -5 11 -4 -3 -3 -17 1 -32 6 -24 10 -26 64 -26 l57 0 31 78 c17 42 33 94 37
115 9 46 28 67 61 67 35 0 85 -83 124 -207 17 -56 38 -110 46 -120 14 -16 15
-7 11 87 -3 58 -11 126 -18 152 -11 41 -11 54 4 95 20 59 36 333 19 333 -7 0
-12 -27 -14 -67 -2 -41 -7 -66 -13 -63 -5 3 -9 29 -7 58 2 36 0 52 -7 47 -7
-4 -11 -45 -11 -101 0 -70 -3 -95 -12 -92 -9 3 -11 31 -9 96 2 79 0 95 -17
116 l-19 25 -23 -24 c-13 -14 -31 -25 -40 -25 -24 0 -105 44 -167 91 -29 21
-53 39 -55 39 -2 -1 -25 -12 -52 -27z m30 -65 c-14 -48 -14 -58 -3 -58 8 0 8
-3 -1 -9 -10 -6 -9 -10 7 -14 15 -4 21 -13 21 -34 0 -36 -31 -42 -68 -13 -20
16 -22 21 -9 26 9 3 20 18 25 33 8 23 7 31 -8 41 -17 13 -17 14 3 31 30 25 41
23 33 -3z m95 -205 c13 -15 12 -15 -8 -4 -22 11 -22 10 -12 -11 19 -44 -28
-114 -52 -77 -12 18 0 72 17 82 8 5 12 12 9 18 -11 16 32 10 46 -8z m-31 -117
c0 -11 -19 -15 -25 -6 -3 5 1 10 9 10 9 0 16 -2 16 -4z m0 -36 c0 -5 -2 -10
-4 -10 -3 0 -8 5 -11 10 -3 6 -1 10 4 10 6 0 11 -4 11 -10z m1 -83 c-10 -9
-11 -8 -5 6 3 10 9 15 12 12 3 -3 0 -11 -7 -18z m-4 -61 c-15 -31 -22 -25 -13
9 4 14 11 23 15 20 5 -3 4 -16 -2 -29z"/>
<path d="M1573 2050 c-4 -15 -11 -19 -24 -15 -14 5 -39 -14 -97 -72 -80 -81
-125 -151 -136 -215 -6 -35 -5 -38 18 -38 48 0 56 9 56 64 0 29 5 57 12 64 8
8 54 12 140 12 l128 0 0 63 c0 55 -3 63 -22 72 -17 7 -24 20 -26 48 -3 30 -7
37 -24 37 -12 0 -22 -8 -25 -20z"/>
<path d="M944 1844 c-19 -41 -34 -77 -34 -78 0 -4 133 5 138 9 5 5 -53 145
-61 145 -4 0 -24 -34 -43 -76z"/>
<path d="M1904 1844 c-19 -41 -34 -77 -34 -78 0 -4 133 5 138 9 5 5 -53 145
-61 145 -4 0 -24 -34 -43 -76z"/>
<path d="M2218 1814 c3 -61 -1 -91 -14 -120 -14 -32 -17 -63 -15 -176 2 -90
-1 -138 -7 -138 -6 0 -12 -15 -14 -32 -6 -60 -22 -34 -20 32 2 36 -2 72 -8 80
-8 12 -10 11 -10 -7 0 -13 -4 -23 -9 -23 -5 0 -5 18 1 42 12 57 2 107 -33 162
-28 46 -29 46 -71 40 -24 -4 -81 -16 -128 -28 l-85 -22 -3 -127 c-2 -81 -6
-127 -13 -127 -7 0 -10 -21 -7 -55 2 -39 -1 -55 -9 -55 -7 0 -13 12 -14 28 0
15 -1 91 -2 170 -1 127 -3 142 -19 142 -9 0 -20 5 -23 10 -3 6 -20 10 -36 10
-30 0 -59 22 -89 68 l-15 23 -80 -45 c-44 -26 -83 -46 -87 -46 -18 0 -6 -30
25 -68 27 -32 33 -46 29 -76 -2 -20 -8 -36 -12 -36 -5 0 -6 17 -3 38 4 28 1
42 -12 52 -16 13 -17 11 -15 -25 5 -73 0 -135 -10 -135 -5 0 -10 9 -10 20 0
11 -4 20 -10 20 -6 0 -10 40 -10 99 l0 100 -31 -9 c-18 -5 -35 -7 -39 -5 -14
9 -21 -28 -14 -72 4 -29 3 -43 -5 -43 -7 0 -11 -28 -11 -80 0 -44 -4 -80 -9
-80 -17 0 -18 14 -9 95 6 63 6 82 -5 90 -9 7 -12 26 -9 60 2 28 1 47 -3 43 -3
-3 -8 -55 -11 -114 -2 -59 -8 -110 -12 -113 -5 -3 -11 -21 -14 -38 -4 -32 -3
-33 48 -48 65 -19 114 -58 114 -91 0 -35 -21 -39 -76 -15 -58 26 -95 27 -125
2 -19 -15 -24 -30 -27 -85 -6 -95 6 -196 24 -196 7 0 39 16 70 36 30 19 68 40
83 45 24 9 29 18 39 71 6 33 18 71 27 84 35 54 168 124 233 124 40 -1 104 -33
146 -74 l36 -37 0 48 c0 92 57 121 128 67 45 -35 140 -165 198 -270 25 -46 47
-84 49 -84 10 0 67 69 195 236 142 184 172 211 206 183 21 -17 27 11 19 86 -7
73 -28 81 -23 9 2 -24 -1 -43 -6 -44 -5 0 -8 44 -7 98 2 103 -3 132 -24 132
-24 0 -138 92 -229 184 l-91 92 3 -82z m-563 -394 c3 -11 17 -23 31 -26 21 -5
24 -12 24 -52 0 -44 0 -45 -20 -27 -11 10 -20 24 -20 32 0 7 -3 12 -7 12 -21
-3 -33 2 -33 16 0 8 -6 15 -14 15 -18 0 -39 27 -31 40 12 19 63 12 70 -10z
m780 -60 c21 -23 15 -36 -12 -26 -15 6 -15 8 -3 16 13 8 12 10 -2 10 -10 0
-18 5 -18 10 0 16 15 12 35 -10z m-999 -54 l45 -24 -31 -19 -31 -20 -37 36
c-29 28 -34 37 -22 43 23 10 28 9 76 -16z m955 -43 c-8 -15 -10 -15 -11 -2 0
17 10 32 18 25 2 -3 -1 -13 -7 -23z m-1118 -117 c41 -16 48 -23 43 -40 -3 -12
-6 -31 -6 -43 0 -18 -6 -23 -24 -23 -40 0 -76 -18 -86 -42 -6 -17 -9 1 -9 63
-1 77 10 116 29 107 3 -2 27 -12 53 -22z"/>
<path d="M2681 1774 c0 -11 3 -14 6 -6 3 7 2 16 -1 19 -3 4 -6 -2 -5 -13z"/>
<path d="M1703 1753 c-22 -4 -22 -5 -7 -35 8 -16 17 -28 18 -26 2 1 11 18 20
36 17 34 17 34 -31 25z"/>
<path d="M1196 1712 c-2 -4 -1 -14 5 -22 7 -12 9 -10 9 8 0 23 -5 28 -14 14z"/>
<path d="M2611 1584 c0 -11 3 -14 6 -6 3 7 2 16 -1 19 -3 4 -6 -2 -5 -13z"/>
<path d="M2572 1570 c0 -14 2 -19 5 -12 2 6 2 18 0 25 -3 6 -5 1 -5 -13z"/>
<path d="M2642 1550 c0 -19 2 -27 5 -17 2 9 2 25 0 35 -3 9 -5 1 -5 -18z"/>
<path d="M2591 1544 c0 -11 3 -14 6 -6 3 7 2 16 -1 19 -3 4 -6 -2 -5 -13z"/>
<path d="M812 1495 c0 -56 1 -58 9 -23 5 22 5 47 -1 60 -7 18 -9 9 -8 -37z"/>
<path d="M1182 1525 c0 -16 2 -22 5 -12 2 9 2 23 0 30 -3 6 -5 -1 -5 -18z"/>
<path d="M1772 1495 c0 -56 1 -58 9 -23 5 22 5 47 -1 60 -7 18 -9 9 -8 -37z"/>
<path d="M2142 1525 c0 -16 2 -22 5 -12 2 9 2 23 0 30 -3 6 -5 -1 -5 -18z"/>
<path d="M1203 1475 c0 -33 2 -45 4 -27 2 18 2 45 0 60 -2 15 -4 0 -4 -33z"/>
<path d="M2163 1475 c0 -33 2 -45 4 -27 2 18 2 45 0 60 -2 15 -4 0 -4 -33z"/>
<path d="M1390 1471 c0 -22 5 -43 10 -46 6 -4 10 12 10 39 0 25 -4 46 -10 46
-5 0 -10 -18 -10 -39z"/>
<path d="M2612 1480 c0 -14 2 -19 5 -12 2 6 2 18 0 25 -3 6 -5 1 -5 -13z"/>
<path d="M1633 1090 c-4 -39 -12 -72 -17 -73 -5 -1 -9 29 -8 68 1 49 -1 64 -8
50 -5 -11 -10 -31 -11 -45 -1 -17 -4 -12 -8 15 -7 50 -24 54 -77 19 -68 -44
-90 -97 -58 -142 13 -19 24 -22 87 -22 113 1 185 44 203 122 5 27 2 36 -20 55
-15 13 -38 23 -51 23 -21 0 -24 -6 -32 -70z m-103 -24 c0 -7 7 -19 15 -26 25
-21 17 -36 -20 -38 -43 -3 -54 17 -31 53 18 27 36 33 36 11z"/>
<path d="M1463 755 c0 -27 2 -38 4 -22 2 15 2 37 0 50 -2 12 -4 0 -4 -28z"/>
<path d="M2220 779 c0 -13 5 -31 10 -39 7 -11 8 -5 4 20 -8 43 -14 51 -14 19z"/>
<path d="M2172 765 c0 -16 2 -22 5 -12 2 9 2 23 0 30 -3 6 -5 -1 -5 -18z"/>
<path d="M1182 700 c0 -19 2 -27 5 -17 2 9 2 25 0 35 -3 9 -5 1 -5 -18z"/>
<path d="M302 1715 c0 -16 2 -22 5 -12 2 9 2 23 0 30 -3 6 -5 -1 -5 -18z"/>
<path d="M492 1440 c0 -14 2 -19 5 -12 2 6 2 18 0 25 -3 6 -5 1 -5 -13z"/>
<path d="M1005 1451 c-8 -15 3 -31 21 -31 9 0 14 7 12 17 -4 20 -24 28 -33 14z"/>
<path d="M2056 3101 c-3 -5 1 -14 8 -20 16 -13 32 2 21 19 -8 12 -22 13 -29 1z"/>
<path d="M1085 3090 c3 -5 8 -10 11 -10 2 0 4 5 4 10 0 6 -5 10 -11 10 -5 0
-7 -4 -4 -10z"/>
<path d="M1755 3070 c3 -5 8 -10 11 -10 2 0 4 5 4 10 0 6 -5 10 -11 10 -5 0
-7 -4 -4 -10z"/>
<path d="M2046 3063 c-12 -12 -6 -33 9 -33 8 0 15 6 15 14 0 17 -14 28 -24 19z"/>
<path d="M2707 3063 c-12 -12 -7 -22 8 -17 8 4 15 10 15 15 0 11 -14 12 -23 2z"/>
<path d="M2565 3011 c-6 -11 9 -23 19 -14 9 9 7 23 -3 23 -6 0 -12 -4 -16 -9z"/>
<path d="M2285 2960 c-3 -5 -1 -10 4 -10 6 0 11 5 11 10 0 6 -2 10 -4 10 -3 0
-8 -4 -11 -10z"/>
<path d="M3210 2910 c0 -5 5 -10 10 -10 6 0 10 5 10 10 0 6 -4 10 -10 10 -5 0
-10 -4 -10 -10z"/>
<path d="M2830 2815 c0 -8 5 -15 10 -15 6 0 10 7 10 15 0 8 -4 15 -10 15 -5 0
-10 -7 -10 -15z"/>
<path d="M2900 2786 c0 -9 7 -16 16 -16 9 0 14 5 12 12 -6 18 -28 21 -28 4z"/>
<path d="M2927 2769 c-18 -20 -15 -39 5 -39 6 0 8 3 5 7 -4 3 3 17 15 30 15
16 17 23 7 22 -8 0 -22 -9 -32 -20z"/>
<path d="M1115 2750 c-3 -5 -1 -10 4 -10 6 0 11 5 11 10 0 6 -2 10 -4 10 -3 0
-8 -4 -11 -10z"/>
<path d="M3466 2485 c4 -8 10 -12 15 -9 14 8 10 24 -6 24 -9 0 -12 -6 -9 -15z"/>
<path d="M3395 1395 c-16 -13 -27 -27 -24 -30 3 -3 16 4 29 15 13 11 27 20 32
20 4 0 8 5 8 10 0 16 -12 11 -45 -15z"/>
<path d="M3400 1295 c0 -9 5 -15 11 -13 6 2 11 8 11 13 0 5 -5 11 -11 13 -6 2
-11 -4 -11 -13z"/>
<path d="M3210 1240 c0 -5 5 -10 10 -10 6 0 10 5 10 10 0 6 -4 10 -10 10 -5 0
-10 -4 -10 -10z"/>
<path d="M3426 1181 c-6 -10 22 -37 29 -29 8 7 -5 38 -15 38 -5 0 -11 -4 -14
-9z"/>
<path d="M3335 1140 c-3 -5 -1 -10 4 -10 6 0 11 5 11 10 0 6 -2 10 -4 10 -3 0
-8 -4 -11 -10z"/>
<path d="M3100 1080 c0 -5 5 -10 10 -10 6 0 10 5 10 10 0 6 -4 10 -10 10 -5 0
-10 -4 -10 -10z"/>
<path d="M820 889 c0 -5 5 -7 10 -4 6 3 10 8 10 11 0 2 -4 4 -10 4 -5 0 -10
-5 -10 -11z"/>
<path d="M2365 820 c-7 -12 2 -30 16 -30 5 0 9 9 9 20 0 21 -15 27 -25 10z"/>
<path d="M2704 775 c-4 -9 -2 -21 4 -27 15 -15 44 -1 40 19 -4 23 -36 29 -44
8z"/>
<path d="M2470 681 c0 -6 4 -12 8 -15 5 -3 9 1 9 9 0 8 -4 15 -9 15 -4 0 -8
-4 -8 -9z"/>
<path d="M3210 630 c0 -5 5 -10 11 -10 5 0 7 5 4 10 -3 6 -8 10 -11 10 -2 0
-4 -4 -4 -10z"/>
<path d="M2376 511 c-4 -7 -5 -15 -2 -18 9 -9 19 4 14 18 -4 11 -6 11 -12 0z"/>
<path d="M1590 485 c0 -8 5 -15 10 -15 6 0 10 7 10 15 0 8 -4 15 -10 15 -5 0
-10 -7 -10 -15z"/>
<path d="M1347 473 c-11 -10 -8 -41 4 -49 16 -9 43 21 36 40 -7 16 -28 21 -40
9z"/>
<path d="M3067 176 c-7 -16 18 -54 28 -44 9 9 -3 58 -14 58 -5 0 -11 -6 -14
-14z"/>
</g>
</svg>
