<?xml version="1.0" standalone="no"?>
<!DOCTYPE svg PUBLIC "-//W3C//DTD SVG 20010904//EN"
 "http://www.w3.org/TR/2001/REC-SVG-20010904/DTD/svg10.dtd">
<svg version="1.0" xmlns="http://www.w3.org/2000/svg"
 width="1100.000000pt" height="1100.000000pt" viewBox="0 0 1100.000000 1100.000000"
 preserveAspectRatio="xMidYMid meet">
<metadata>
Created by potrace 1.11, written by Peter Selinger 2001-2013
</metadata>
<g transform="translate(0.000000,1100.000000) scale(0.100000,-0.100000)"
fill="#000000" stroke="none">
<path d="M1846 8713 c-3 -16 -26 -134 -50 -263 -25 -129 -185 -955 -356 -1835
-171 -880 -331 -1706 -356 -1835 -24 -129 -56 -289 -69 -355 -13 -66 -45 -228
-70 -360 -25 -132 -61 -319 -80 -415 -171 -870 -245 -1264 -245 -1294 l0 -36
787 2 787 3 22 110 c12 61 42 220 68 355 26 135 58 299 71 365 13 66 45 228
70 360 25 132 55 283 65 335 11 52 42 214 70 360 28 146 65 336 82 423 l31
157 373 0 373 0 10 53 c5 28 25 133 45 232 19 99 53 277 76 395 23 118 67 348
98 510 l58 295 -374 3 c-349 2 -373 3 -368 20 3 9 39 195 81 412 42 217 81
419 87 448 l11 52 1233 0 1234 0 5 23 c5 22 141 723 216 1112 22 116 48 249
58 297 10 48 16 90 13 93 -3 3 -915 5 -2028 5 l-2022 0 -6 -27z"/>
<path d="M7990 8695 c0 -3 -15 -83 -34 -178 -19 -94 -56 -280 -81 -412 -63
-328 -109 -563 -143 -735 -16 -80 -27 -148 -25 -152 2 -5 179 -8 394 -8 234 0
389 -4 389 -9 0 -9 -314 -1630 -626 -3233 l-39 -198 -325 -2 -325 -3 -12 -60
c-7 -33 -30 -154 -52 -270 -23 -115 -81 -419 -131 -675 -49 -255 -90 -470 -90
-477 0 -11 275 -13 1472 -11 l1472 3 27 135 c14 74 45 234 68 355 23 121 53
274 66 340 31 155 112 579 121 628 l6 37 -357 0 c-335 0 -356 1 -351 18 7 27
32 147 80 402 25 129 140 723 256 1320 116 597 231 1191 256 1320 25 129 54
278 64 330 24 118 74 375 140 720 28 146 59 308 70 360 11 52 33 169 50 260
17 91 33 173 36 183 5 16 -56 17 -1185 17 -655 0 -1191 -2 -1191 -5z"/>
<path d="M4565 6268 c-2 -7 -50 -249 -105 -538 -56 -289 -117 -603 -136 -697
-19 -95 -34 -188 -34 -208 l0 -35 1468 0 1468 0 138 718 c77 394 145 729 153
745 l14 27 -1481 0 c-1176 0 -1482 -3 -1485 -12z"/>
</g>
</svg>
