<?xml version="1.0" standalone="no"?>
<!DOCTYPE svg PUBLIC "-//W3C//DTD SVG 20010904//EN"
 "http://www.w3.org/TR/2001/REC-SVG-20010904/DTD/svg10.dtd">
<svg version="1.0" xmlns="http://www.w3.org/2000/svg"
 width="300.000000pt" height="300.000000pt" viewBox="0 0 300.000000 300.000000"
 preserveAspectRatio="xMidYMid meet">
<metadata>
Created by potrace 1.11, written by Peter Selinger 2001-2013
</metadata>
<g transform="translate(0.000000,300.000000) scale(0.100000,-0.100000)"
fill="#000000" stroke="none">
<path d="M101 2826 c-21 -45 -21 -55 -21 -1356 0 -1111 2 -1316 14 -1345 23
-54 47 -57 421 -53 300 4 337 7 409 26 130 36 221 86 307 172 87 86 134 172
172 312 22 83 22 87 22 898 0 917 3 870 -77 1039 -54 113 -159 220 -268 273
-143 70 -153 71 -577 75 l-382 4 -20 -45z m809 0 c101 -24 204 -75 265 -131
l50 -45 -70 51 c-80 59 -129 82 -235 111 -65 18 -121 21 -430 28 l-355 7 350
-1 c297 -2 361 -5 425 -20z m-105 -437 c55 -15 100 -64 119 -129 14 -47 16
-145 16 -794 0 -466 -4 -754 -10 -777 -14 -52 -49 -100 -90 -123 -51 -30 -237
-37 -257 -10 -11 14 -13 186 -13 912 0 597 3 900 10 913 9 17 22 19 98 19 48
0 105 -5 127 -11z"/>
<path d="M1710 2826 c-20 -44 -20 -61 -20 -1356 0 -1442 -3 -1366 60 -1389 19
-6 99 -11 192 -11 179 0 208 8 227 61 7 22 11 195 11 544 0 483 1 513 18 528
16 15 52 17 288 18 148 1 280 4 293 8 13 3 34 19 45 34 19 26 21 42 21 190 0
145 -2 166 -21 197 l-20 35 -302 5 c-255 4 -304 7 -312 20 -15 24 -13 652 3
673 11 14 50 16 347 19 301 3 339 5 363 21 37 24 42 51 41 222 0 118 -4 158
-17 188 l-17 37 -590 0 -590 0 -20 -44z m897 17 c-158 -2 -416 -2 -575 0 -158
1 -28 2 288 2 316 0 446 -1 287 -2z"/>
</g>
</svg>
